# xmcd
#
# Track frame offsets: 
#        150
#        23504
#        44907
#        63774
#        83141
#        105206
#        118852
#        137779
#        156867
#        177823
#        200486
#        224331
#        243578
#        261698
#        288958
#
# Disc length: 4113 seconds
#
# Revision: 0
# Processed by: cddbd v1.5.2PL0 Copyright (c) Steve Scherf et al.
# Submitted via: ExactAudioCopy v1.0b3
#
DISCID=db100f0f
DTITLE=EXILE ATSUSHI - Solo
DYEAR=2012
DGENRE=R&B
TTITLE0=Freak Out feat. DOBERMAN INC
TTITLE1=Another World
TTITLE2=願い -Album ver.-
TTITLE3=言葉にできない
TTITLE4=Change My Mind feat. VERBAL
TTITLE5=Ooo Baby
TTITLE6=いつかきっと…
TTITLE7=BLACK RAIN
TTITLE8=So Special -Version EX- - EXILE ATSUSHI and AI
TTITLE9=forever love
TTITLE10=You're my “HERO”
TTITLE11=空の彼方へ
TTITLE12=END OF THE DAY feat. Boyz II Men -A's Urban Version-
TTITLE13=Golden Smile feat. 久保田利伸
TTITLE14=こんなにも長い君の不在
EXTD=
EXTT0=
EXTT1=
EXTT2=
EXTT3=
EXTT4=
EXTT5=
EXTT6=
EXTT7=
EXTT8=
EXTT9=
EXTT10=
EXTT11=
EXTT12=
EXTT13=
EXTT14=
PLAYORDER=
